<svg xmlns="http://www.w3.org/2000/svg" width="629" height="409.27" viewBox="0 0 629 409.27">
  <g id="Grupo_6" data-name="Grupo 6" transform="translate(-808.323 -432)">
    <text id="ANDRES" transform="translate(808.323 726)" fill="#fff" font-size="156" font-family="RoxboroughCF-Regular, Roxborough CF" letter-spacing="-0.035em"><tspan x="0" y="0">ANDRES</tspan></text>
    <g id="Grupo_1" data-name="Grupo 1" transform="translate(960.915 432)">
      <text id="SAN" transform="translate(0.409 158)" fill="#fff" font-size="158" font-family="RoxboroughCF-Regular, Roxborough CF" letter-spacing="-0.01em"><tspan x="0" y="0">SAN</tspan></text>
      <g id="Elipse_1" data-name="Elipse 1" transform="translate(95.409 23)" fill="none" stroke="#fff" stroke-width="2">
        <ellipse cx="61" cy="26.5" rx="61" ry="26.5" stroke="none"/>
        <ellipse cx="61" cy="26.5" rx="60" ry="25.5" fill="none"/>
      </g>
    </g>
    <path id="Trazado_1" data-name="Trazado 1" d="M19.64.154H6.077V12.511H1.815V-15.471H21.838v3.037H6.077v9.571H19.64ZM32.516,12.511H28.254V-15.471h4.262Zm33.631,0H61.863L45.592-9.052V12.511H41.308V-15.471h4.284L61.907,6.188V-15.471h4.24Zm26.417-7.3H79.023l-3.041,7.3h-4.4L83.929-15.471h3.729l12.364,27.982H95.649ZM80.311,2.172H91.3L85.794-10.916Zm49.9,10.34h-4.284L109.657-9.052V12.511h-4.284V-15.471h4.284L125.973,6.188V-15.471h4.24Zm32.343-8.879a9.839,9.839,0,0,1-3.785,6.851A13.681,13.681,0,0,1,150.3,12.9a12.207,12.207,0,0,1-9.179-3.555,13.075,13.075,0,0,1-3.452-9.513V-2.864a14.138,14.138,0,0,1,1.609-6.861,11.032,11.032,0,0,1,4.562-4.545,14.231,14.231,0,0,1,6.837-1.586,12.824,12.824,0,0,1,8.258,2.489,9.887,9.887,0,0,1,3.618,6.89h-4.284a7.552,7.552,0,0,0-2.408-4.843,8.035,8.035,0,0,0-5.183-1.5,8.12,8.12,0,0,0-6.4,2.614q-2.32,2.614-2.32,7.438v2.71a11.112,11.112,0,0,0,2.2,7.245A7.5,7.5,0,0,0,150.3,9.878a9.1,9.1,0,0,0,5.45-1.393q1.9-1.393,2.519-4.853Zm11.389,8.879h-4.262V-15.471h4.262ZM201.005-.423H187V9.494h16.271v3.017H182.736V-15.471h20.311v3.037H187V-3.44h14.007Zm20.423,1.614h-7.592v11.32h-4.284V-15.471h10.7q5.461,0,8.4,2.152A7.281,7.281,0,0,1,231.6-7.053,6.859,6.859,0,0,1,229.964-2.5,9.756,9.756,0,0,1,225.424.4l7.592,11.877v.231h-4.573Zm-7.592-3.017h6.548a8.161,8.161,0,0,0,5.05-1.422,4.534,4.534,0,0,0,1.876-3.805,4.731,4.731,0,0,0-1.787-3.978,8.375,8.375,0,0,0-5.161-1.4h-6.526Zm42.577,7.034H242.873l-3.041,7.3h-4.4l12.342-27.982h3.729l12.364,27.982H259.5ZM244.16,2.172h10.988l-5.505-13.088Z" transform="translate(992.162 828.375)" fill="#fff"/>
    <line id="Línea_1" data-name="Línea 1" x2="419.483" transform="translate(914.42 778.125)" fill="none" stroke="#fff" stroke-width="1"/>
  </g>
</svg>
